General
Complete name                            : ../.././Samples/mpeg_demuxer_crash_NSFW.mpg
Format                                   : MPEG-PS
File size                                : 395 KiB
Duration                                 : 11 s 637 ms
Overall bit rate mode                    : Variable
Overall bit rate                         : 278 kb/s

Video
ID                                       : 224 (0xE0)
Format                                   : MPEG Video
Format version                           : Version 1
Format settings                          : BVOP
Format settings, BVOP                    : Yes
Format settings, Matrix                  : Default
Format settings, GOP                     : M=3, N=12
Duration                                 : 11 s 637 ms
Bit rate mode                            : Variable
Bit rate                                 : 208 kb/s
Width                                    : 192 pixels
Height                                   : 144 pixels
Display aspect ratio                     : 4:3
Frame rate                               : 23.976 (24000/1001) FPS
Color space                              : YUV
Chroma subsampling                       : 4:2:0
Bit depth                                : 8 bits
Scan type                                : Progressive
Compression mode                         : Lossy
Bits/(Pixel*Frame)                       : 0.314
Time code of first frame                 : 00:00:00:00
Time code source                         : Group of pictures header
GOP, Open/Closed                         : Open
GOP, Open/Closed of first frame          : Closed
Stream size                              : 296 KiB (75%)

Audio
ID                                       : 192 (0xC0)
Format                                   : MPEG Audio
Format version                           : Version 1
Format profile                           : Layer 2
Format settings                          : Intensity Stereo
Duration                                 : 11 s 628 ms
Bit rate mode                            : Constant
Bit rate                                 : 64.0 kb/s
Channel(s)                               : 2 channels
Sampling rate                            : 32.0 kHz
Frame rate                               : 27.778 FPS (1152 SPF)
Compression mode                         : Lossy
Stream size                              : 90.8 KiB (23%)


General
Complete name                            : ../.././Samples/mpeg_demuxer_crash_NSFW.mpg
Format                                   : MPEG-PS
File size                                : 395 KiB
Duration                                 : 11 s 637 ms
Overall bit rate mode                    : Variable
Overall bit rate                         : 278 kb/s

Video
ID                                       : 224 (0xE0)
Format                                   : MPEG Video
Format version                           : Version 1
Format settings                          : BVOP
Format settings, BVOP                    : Yes
Format settings, Matrix                  : Default
Format settings, GOP                     : M=3, N=12
Duration                                 : 11 s 637 ms
Bit rate mode                            : Variable
Bit rate                                 : 208 kb/s
Width                                    : 192 pixels
Height                                   : 144 pixels
Display aspect ratio                     : 4:3
Frame rate                               : 23.976 (24000/1001) FPS
Color space                              : YUV
Chroma subsampling                       : 4:2:0
Bit depth                                : 8 bits
Scan type                                : Progressive
Compression mode                         : Lossy
Bits/(Pixel*Frame)                       : 0.314
Time code of first frame                 : 00:00:00:00
Time code source                         : Group of pictures header
GOP, Open/Closed                         : Open
GOP, Open/Closed of first frame          : Closed
Stream size                              : 296 KiB (75%)

Audio
ID                                       : 192 (0xC0)
Format                                   : MPEG Audio
Format version                           : Version 1
Format profile                           : Layer 2
Format settings                          : Intensity Stereo
Duration                                 : 11 s 628 ms
Bit rate mode                            : Constant
Bit rate                                 : 64.0 kb/s
Channel(s)                               : 2 channels
Sampling rate                            : 32.0 kHz
Frame rate                               : 27.778 FPS (1152 SPF)
Compression mode                         : Lossy
Stream size                              : 90.8 KiB (23%)


